<svg width="24" height="24" viewBox="0 0 24 24" fill="currentColor" xmlns="http://www.w3.org/2000/svg">
<path fill-rule="evenodd" clip-rule="evenodd" d="M6 22C7.65685 22 9 20.6569 9 19C9 17.3431 7.65685 16 6 16C4.34315 16 3 17.3431 3 19C3 20.6569 4.34315 22 6 22ZM6 20C6.55228 20 7 19.5523 7 19C7 18.4477 6.55228 18 6 18C5.44772 18 5 18.4477 5 19C5 19.5523 5.44772 20 6 20Z" />
<path fill-rule="evenodd" clip-rule="evenodd" d="M6 8C7.65685 8 9 6.65685 9 5C9 3.34315 7.65685 2 6 2C4.34315 2 3 3.34315 3 5C3 6.65685 4.34315 8 6 8ZM6 6C6.55228 6 7 5.55228 7 5C7 4.44772 6.55228 4 6 4C5.44772 4 5 4.44772 5 5C5 5.55228 5.44772 6 6 6Z" />
<path d="M6 7L6 17" stroke="currentColor" stroke-width="1.7"/>
<path d="M12 5H20" stroke="currentColor" stroke-width="1.7" stroke-linecap="round"/>
<path d="M12 19H20" stroke="currentColor" stroke-width="1.7" stroke-linecap="round"/>
</svg>
