<svg width="30" height="30" viewBox="0 0 30 30" fill="none" xmlns="http://www.w3.org/2000/svg">
<path d="M8.40674 16.625C8.65674 16.375 8.95882 16.255 9.31299 16.265C9.66716 16.2758 9.96924 16.4063 10.2192 16.6563L13.7505 20.1875L13.7505 6.25C13.7505 5.89583 13.8705 5.59875 14.1105 5.35875C14.3497 5.11958 14.6463 5 15.0005 5C15.3547 5 15.6517 5.11958 15.8917 5.35875C16.1309 5.59875 16.2505 5.89583 16.2505 6.25V20.1875L19.813 16.625C20.063 16.375 20.3601 16.25 20.7042 16.25C21.0476 16.25 21.3442 16.375 21.5942 16.625C21.8442 16.875 21.9692 17.1721 21.9692 17.5163C21.9692 17.8596 21.8442 18.1563 21.5942 18.4063L15.8755 24.125C15.7505 24.25 15.6151 24.3388 15.4692 24.3913C15.3234 24.4429 15.1672 24.4688 15.0005 24.4688C14.8338 24.4688 14.6776 24.4429 14.5317 24.3913C14.3859 24.3388 14.2505 24.25 14.1255 24.125L8.37549 18.375C8.14632 18.1458 8.03174 17.8596 8.03174 17.5163C8.03174 17.1721 8.15674 16.875 8.40674 16.625Z" fill="#666666"/>
</svg>
