<svg width="30" height="30" viewBox="0 0 30 30" fill="none" xmlns="http://www.w3.org/2000/svg">
<path d="M21.5933 13.375C21.3433 13.625 21.0412 13.745 20.687 13.735C20.3328 13.7242 20.0308 13.5937 19.7808 13.3437L16.2495 9.8125V23.75C16.2495 24.1042 16.1295 24.4012 15.8895 24.6412C15.6503 24.8804 15.3537 25 14.9995 25C14.6453 25 14.3483 24.8804 14.1083 24.6412C13.8691 24.4012 13.7495 24.1042 13.7495 23.75V9.8125L10.187 13.375C9.93701 13.625 9.63993 13.75 9.29576 13.75C8.95243 13.75 8.65576 13.625 8.40576 13.375C8.15576 13.125 8.03076 12.8279 8.03076 12.4837C8.03076 12.1404 8.15576 11.8437 8.40576 11.5937L14.1245 5.875C14.2495 5.75 14.3849 5.66125 14.5308 5.60875C14.6766 5.55708 14.8328 5.53125 14.9995 5.53125C15.1662 5.53125 15.3224 5.55708 15.4683 5.60875C15.6141 5.66125 15.7495 5.75 15.8745 5.875L21.6245 11.625C21.8537 11.8542 21.9683 12.1404 21.9683 12.4837C21.9683 12.8279 21.8433 13.125 21.5933 13.375Z" fill="#666666"/>
</svg>
