<svg width="146" height="146" viewBox="0 0 146 146"  xmlns="http://www.w3.org/2000/svg">
<path d="M130.792 24.333H109.5V32.4441H129.778V121.666H16.2223V32.4441H36.5V24.333H15.2084C14.2603 24.3489 13.3247 24.5513 12.4549 24.9288C11.5851 25.3063 10.7982 25.8514 10.1392 26.5331C9.48011 27.2148 8.96179 28.0196 8.61382 28.9016C8.26585 29.7836 8.09504 30.7255 8.11115 31.6736V122.437C8.09504 123.385 8.26585 124.327 8.61382 125.209C8.96179 126.091 9.48011 126.896 10.1392 127.577C10.7982 128.259 11.5851 128.804 12.4549 129.182C13.3247 129.559 14.2603 129.762 15.2084 129.777H130.792C131.74 129.762 132.675 129.559 133.545 129.182C134.415 128.804 135.202 128.259 135.861 127.577C136.52 126.896 137.038 126.091 137.386 125.209C137.734 124.327 137.905 123.385 137.889 122.437V31.6736C137.905 30.7255 137.734 29.7836 137.386 28.9016C137.038 28.0196 136.52 27.2148 135.861 26.5331C135.202 25.8514 134.415 25.3063 133.545 24.9288C132.675 24.5513 131.74 24.3489 130.792 24.333Z" fill="black"/>
<path d="M40.5556 40.5558C41.6312 40.5558 42.6627 40.1285 43.4233 39.3679C44.1838 38.6074 44.6111 37.5758 44.6111 36.5002V16.0556C44.6111 14.98 44.1838 13.9484 43.4233 13.1878C42.6627 12.4273 41.6312 12 40.5556 12C39.48 12 38.4484 12.4273 37.6878 13.1878C36.9273 13.9484 36.5 14.98 36.5 16.0556L36.5 36.5002C36.5 37.5758 36.9273 38.6074 37.6878 39.3679C38.4484 40.1285 39.48 40.5558 40.5556 40.5558Z" fill="black"/>
<path d="M105.444 40.5558C106.52 40.5558 107.552 40.1285 108.312 39.3679C109.073 38.6074 109.5 37.5758 109.5 36.5002V16.0556C109.5 14.98 109.073 13.9484 108.312 13.1878C107.552 12.4273 106.52 12 105.444 12C104.369 12 103.337 12.4273 102.577 13.1878C101.816 13.9484 101.389 14.98 101.389 16.0556V36.5002C101.389 37.5758 101.816 38.6074 102.577 39.3679C103.337 40.1285 104.369 40.5558 105.444 40.5558Z" fill="black"/>
<path d="M44.5 24.333H101.5V32.4441H44.5V24.333Z" fill="black"/>
<path d="M44 95.9183V108H56.0817L91.7146 72.3671L79.6329 60.2854L44 95.9183ZM101.058 58.4812L93.5188 50.9422C93.2208 50.6435 92.8667 50.4066 92.477 50.2449C92.0872 50.0832 91.6694 50 91.2475 50C90.8255 50 90.4077 50.0832 90.018 50.2449C89.6282 50.4066 89.2742 50.6435 88.9761 50.9422L83.0803 56.8381L95.1619 68.9198L101.058 63.0239C101.356 62.7258 101.593 62.3718 101.755 61.982C101.917 61.5923 102 61.1745 102 60.7525C102 60.3306 101.917 59.9128 101.755 59.523C101.593 59.1333 101.356 58.7792 101.058 58.4812V58.4812Z" fill="black"/>
</svg>
