<svg width="35" height="24" viewBox="0 0 35 24" fill="none" xmlns="http://www.w3.org/2000/svg">
<path d="M13.9884 17.192C13.1137 17.192 12.3084 16.9893 11.5724 16.584C10.8364 16.1787 10.2444 15.5813 9.79638 14.792C9.35904 13.992 9.14038 13.0107 9.14038 11.848C9.14038 10.696 9.36438 9.71467 9.81238 8.904C10.271 8.08267 10.8737 7.45867 11.6204 7.032C12.3777 6.59467 13.1937 6.376 14.0684 6.376C14.7404 6.376 15.343 6.51467 15.8764 6.792C16.4097 7.05867 16.8524 7.37333 17.2044 7.736L15.9564 9.24C15.6897 8.99467 15.407 8.79733 15.1084 8.648C14.8204 8.488 14.4897 8.408 14.1164 8.408C13.647 8.408 13.215 8.54133 12.8204 8.808C12.4364 9.07467 12.127 9.45867 11.8924 9.96C11.6684 10.4613 11.5564 11.064 11.5564 11.768C11.5564 12.8347 11.7857 13.6667 12.2444 14.264C12.703 14.8613 13.3164 15.16 14.0844 15.16C14.511 15.16 14.8897 15.064 15.2204 14.872C15.5617 14.68 15.8604 14.4507 16.1164 14.184L17.3644 15.656C16.4897 16.68 15.3644 17.192 13.9884 17.192ZM22.8671 17.192C21.9925 17.192 21.1871 16.9893 20.4511 16.584C19.7151 16.1787 19.1231 15.5813 18.6751 14.792C18.2378 13.992 18.0191 13.0107 18.0191 11.848C18.0191 10.696 18.2431 9.71467 18.6911 8.904C19.1498 8.08267 19.7525 7.45867 20.4991 7.032C21.2565 6.59467 22.0725 6.376 22.9471 6.376C23.6191 6.376 24.2218 6.51467 24.7551 6.792C25.2885 7.05867 25.7311 7.37333 26.0831 7.736L24.8351 9.24C24.5685 8.99467 24.2858 8.79733 23.9871 8.648C23.6991 8.488 23.3685 8.408 22.9951 8.408C22.5258 8.408 22.0938 8.54133 21.6991 8.808C21.3151 9.07467 21.0058 9.45867 20.7711 9.96C20.5471 10.4613 20.4351 11.064 20.4351 11.768C20.4351 12.8347 20.6645 13.6667 21.1231 14.264C21.5818 14.8613 22.1951 15.16 22.9631 15.16C23.3898 15.16 23.7685 15.064 24.0991 14.872C24.4405 14.68 24.7391 14.4507 24.9951 14.184L26.2431 15.656C25.3685 16.68 24.2431 17.192 22.8671 17.192Z" fill="white" fill-opacity="0.8"/>
<rect x="1" y="1" width="33" height="22" rx="9" stroke="white" stroke-opacity="0.8" stroke-width="2"/>
</svg>
