<svg width="22" height="22" viewBox="0 0 22 22" fill="none" xmlns="http://www.w3.org/2000/svg">
<path d="M8.75383 16.1105C8.63161 16.1105 8.51703 16.0912 8.41008 16.0527C8.30314 16.0148 8.20383 15.95 8.11217 15.8584L4.1705 11.9167C4.00244 11.7486 3.92208 11.5308 3.92942 11.2631C3.93736 10.9961 4.02536 10.7785 4.19341 10.6104C4.36147 10.4424 4.57536 10.3584 4.83508 10.3584C5.0948 10.3584 5.30869 10.4424 5.47675 10.6104L8.75383 13.8875L16.5226 6.11878C16.6906 5.95073 16.9085 5.8667 17.1762 5.8667C17.4432 5.8667 17.6608 5.95073 17.8288 6.11878C17.9969 6.28684 18.0809 6.50439 18.0809 6.77145C18.0809 7.03912 17.9969 7.25698 17.8288 7.42503L9.3955 15.8584C9.30383 15.95 9.20453 16.0148 9.09758 16.0527C8.99064 16.0912 8.87605 16.1105 8.75383 16.1105Z" fill="black"/>
</svg>
