<svg version="1.0" xmlns="http://www.w3.org/2000/svg"
 width="1280.000000pt" height="1280.000000pt" viewBox="0 0 1280.000000 1280.000000"
>
<g transform="translate(0.000000,1280.000000) scale(0.100000,-0.100000)" stroke="none">
<path d="M6400 11209 l0 -1066 -152 -7 c-291 -14 -550 -48 -808 -106 -1058
-241 -1994 -888 -2594 -1795 -135 -204 -184 -288 -288 -499 -301 -614 -441
-1264 -425 -1966 6 -262 22 -430 63 -658 293 -1659 1549 -2995 3192 -3396 538
-132 1178 -154 1732 -60 845 142 1634 543 2254 1144 792 767 1251 1797 1293
2898 l6 172 -540 0 -540 0 -6 -167 c-36 -985 -579 -1936 -1427 -2498 -1241
-824 -2887 -678 -3959 350 -289 278 -488 548 -666 910 -110 224 -171 387 -230
620 -76 299 -90 420 -90 785 1 272 3 333 22 450 77 488 235 902 494 1295 249
378 532 662 909 913 474 316 1047 505 1608 529 l152 6 0 -1069 0 -1069 1337
1338 1338 1337 -1338 1337 -1337 1338 0 -1066z"/>
</g>
</svg>
