<svg width="26" height="26" viewBox="0 0 26 26" fill="none" xmlns="http://www.w3.org/2000/svg">
<g clip-path="url(#clip0_771_609)">
<path d="M10.6091 13.8591C10.804 13.6648 11.0656 13.552 11.3407 13.5436C11.6159 13.5352 11.8839 13.6318 12.0903 13.8139C12.2967 13.9959 12.4262 14.2497 12.4523 14.5237C12.4784 14.7977 12.3992 15.0713 12.2308 15.2891L12.1409 15.3909L6.9485 20.5833H9.75C10.0261 20.5836 10.2917 20.6894 10.4925 20.8789C10.6933 21.0685 10.8141 21.3275 10.8303 21.6032C10.8465 21.8788 10.7568 22.1502 10.5795 22.362C10.4023 22.5737 10.1509 22.7098 9.87675 22.7424L9.75 22.75H4.33333C4.06799 22.75 3.81188 22.6525 3.6136 22.4762C3.41531 22.2999 3.28863 22.0569 3.25758 21.7934L3.25 21.6667V16.25C3.25031 15.9739 3.35604 15.7083 3.54559 15.5075C3.73514 15.3067 3.9942 15.1859 4.26984 15.1697C4.54549 15.1535 4.81691 15.2432 5.02865 15.4205C5.24039 15.5977 5.37647 15.8491 5.40908 16.1233L5.41667 16.25V19.0515L10.6091 13.8591ZM21.6667 3.25C21.932 3.25004 22.1881 3.34745 22.3864 3.52377C22.5847 3.7001 22.7114 3.94306 22.7424 4.20658L22.75 4.33333V9.75C22.7497 10.0261 22.644 10.2917 22.4544 10.4925C22.2649 10.6933 22.0058 10.8141 21.7302 10.8303C21.4545 10.8465 21.1831 10.7568 20.9713 10.5795C20.7596 10.4023 20.6235 10.1509 20.5909 9.87675L20.5833 9.75V6.9485L15.3909 12.1409C15.196 12.3352 14.9344 12.448 14.6593 12.4564C14.3841 12.4648 14.1161 12.3682 13.9097 12.1861C13.7033 12.0041 13.5738 11.7503 13.5477 11.4763C13.5216 11.2023 13.6008 10.9287 13.7692 10.7109L13.8591 10.6091L19.0515 5.41667H16.25C15.9739 5.41636 15.7083 5.31063 15.5075 5.12108C15.3067 4.93153 15.1859 4.67247 15.1697 4.39682C15.1535 4.12118 15.2432 3.84976 15.4205 3.63801C15.5977 3.42627 15.8491 3.2902 16.1233 3.25758L16.25 3.25H21.6667Z" fill="black"/>
</g>
<defs>
<clipPath id="clip0_771_609">
<rect width="26" height="26" fill="white"/>
</clipPath>
</defs>
</svg>
