<svg width="24" height="24" viewBox="0 0 24 24" fill="none" xmlns="http://www.w3.org/2000/svg">
<g clip-path="url(#clip0_1329_100)">
<path fill-rule="evenodd" clip-rule="evenodd" d="M13.4861 3.69659C12.796 3.7161 12.2524 4.29133 12.272 4.98141L13.5215 4.94609C12.272 4.98141 12.272 4.98146 12.272 4.98153L12.272 4.98175L12.272 4.98256L12.2721 4.98552L12.2724 4.9968L12.2737 5.03999L12.2787 5.2026C12.2831 5.34245 12.2896 5.54216 12.2982 5.78242C12.3154 6.2624 12.3408 6.90668 12.3738 7.55999C12.4066 8.20986 12.4475 8.88284 12.4964 9.41489C12.5206 9.67772 12.5487 9.9289 12.5825 10.1335C12.5989 10.233 12.6212 10.3505 12.6531 10.4641C12.6689 10.5204 12.6939 10.6008 12.7323 10.6889C12.761 10.7546 12.8434 10.9361 13.0158 11.1086C13.1883 11.281 13.3698 11.3634 13.4355 11.3921C13.5236 11.4305 13.604 11.4555 13.6603 11.4713C13.7739 11.5032 13.8914 11.5255 13.9909 11.5419C14.1955 11.5757 14.4467 11.6038 14.7095 11.628C15.2416 11.6769 15.9145 11.7178 16.5644 11.7506C17.2177 11.7836 17.862 11.809 18.342 11.8262C18.5822 11.8348 18.7819 11.8413 18.9218 11.8457L19.0844 11.8507L19.1276 11.852L19.1389 11.8523L19.1418 11.8524L19.1426 11.8524L19.1429 11.8524C19.1429 11.8524 19.143 11.8524 19.1783 10.6029L19.143 11.8524C19.8331 11.872 20.4083 11.3283 20.4278 10.6383C20.4473 9.94819 19.9037 9.37295 19.2136 9.35344L19.1783 10.6029L19.2136 9.35344L19.2135 9.35344L19.2129 9.35342L19.2104 9.35335L19.2001 9.35305L19.1588 9.35184L19.0005 9.34698C18.8637 9.34267 18.6676 9.33623 18.4314 9.32778C17.9585 9.31086 17.3273 9.28592 16.6904 9.25378C16.6741 9.25296 16.6578 9.25213 16.6415 9.2513L22.1347 3.75806C22.6229 3.26991 22.6229 2.47845 22.1347 1.9903C21.6466 1.50214 20.8551 1.50214 20.367 1.9903L14.8732 7.48409C14.8723 7.4674 14.8715 7.4507 14.8706 7.43399C14.8385 6.79712 14.8135 6.16595 14.7966 5.69302C14.7882 5.45683 14.7817 5.26072 14.7774 5.12387L14.7726 4.96557L14.7713 4.92432L14.771 4.91397L14.771 4.91146L14.771 4.91088L14.771 4.91076L13.5215 4.94609L14.771 4.91076C14.7514 4.22068 14.1762 3.67708 13.4861 3.69659Z" fill="black"/>
<path fill-rule="evenodd" clip-rule="evenodd" d="M10.5458 20.4733C11.2359 20.4539 11.7795 19.8787 11.76 19.1886L10.5105 19.2238C11.76 19.1886 11.76 19.1885 11.76 19.1885L11.76 19.1882L11.76 19.1874L11.7599 19.1845L11.7596 19.1732L11.7583 19.13L11.7533 18.9674C11.7489 18.8275 11.7424 18.6278 11.7338 18.3875C11.7166 17.9075 11.6912 17.2632 11.6583 16.6099C11.6255 15.96 11.5846 15.287 11.5358 14.7549C11.5116 14.492 11.4835 14.2409 11.4498 14.0362C11.4334 13.9367 11.411 13.8193 11.3792 13.7056C11.3634 13.6493 11.3384 13.5689 11.3 13.4809C11.2712 13.4151 11.1888 13.2336 11.0164 13.0611C10.8439 12.8887 10.6624 12.8063 10.5966 12.7776C10.5086 12.7391 10.4282 12.7141 10.3719 12.6984C10.2582 12.6665 10.1408 12.6441 10.0413 12.6277C9.83665 12.594 9.58546 12.5659 9.32262 12.5417C8.79054 12.4929 8.11753 12.452 7.46763 12.4192C6.81429 12.3863 6.16998 12.3609 5.68997 12.3437C5.4497 12.3351 5.24998 12.3286 5.11012 12.3242L4.94751 12.3192L4.90431 12.3179L4.89303 12.3176L4.89007 12.3175L4.88926 12.3175L4.88904 12.3175C4.88897 12.3175 4.88892 12.3175 4.85366 13.567L4.88892 12.3175C4.19884 12.298 3.62363 12.8416 3.60416 13.5317C3.58469 14.2218 4.12832 14.797 4.8184 14.8165L4.81852 14.8165L4.8191 14.8165L4.82161 14.8166L4.83196 14.8169L4.87321 14.8181L5.03152 14.8229C5.16838 14.8273 5.3645 14.8337 5.6007 14.8421C6.07365 14.859 6.70485 14.8839 7.34176 14.916C7.35813 14.9169 7.3745 14.9177 7.39085 14.9185L1.89704 20.4123C1.40889 20.9005 1.40889 21.6919 1.89704 22.1801C2.3852 22.6682 3.17665 22.6682 3.66481 22.1801L9.15896 16.6859C9.1598 16.7025 9.16064 16.7191 9.16148 16.7357C9.19359 17.3727 9.2185 18.0039 9.23539 18.4768C9.24383 18.713 9.25026 18.9091 9.25456 19.046L9.25941 19.2043L9.26063 19.2455L9.26092 19.2559L9.26099 19.2584L9.26101 19.259L9.26101 19.2591L10.5105 19.2238L9.26101 19.2591C9.28049 19.9492 9.8557 20.4928 10.5458 20.4733Z" fill="black"/>
</g>
<defs>
<clipPath id="clip0_1329_100">
<rect width="24" height="24" fill="white"/>
</clipPath>
</defs>
</svg>
