<svg width="24" height="24" viewBox="0 0 24 24" fill="none" xmlns="http://www.w3.org/2000/svg">
<g clip-path="url(#clip0_1884_955)">
<path d="M11.0009 11.9999C11.2458 11.9999 11.4822 12.0899 11.6652 12.2526C11.8483 12.4154 11.9652 12.6397 11.9939 12.8829L12.0009 12.9999V17.9999C12.0006 18.2548 11.903 18.4999 11.728 18.6853C11.553 18.8706 11.3139 18.9821 11.0595 18.9971C10.805 19.012 10.5545 18.9292 10.359 18.7657C10.1636 18.6021 10.038 18.37 10.0079 18.1169L10.0009 17.9999V15.4139L4.70786 20.7069C4.5279 20.8863 4.28643 20.9904 4.03248 20.9981C3.77853 21.0059 3.53115 20.9167 3.34058 20.7487C3.15002 20.5806 3.03056 20.3464 3.00646 20.0934C2.98237 19.8405 3.05545 19.5879 3.21086 19.3869L3.29386 19.2929L8.58686 13.9999H6.00086C5.74598 13.9996 5.50083 13.902 5.31549 13.7271C5.13016 13.5521 5.01863 13.313 5.00369 13.0585C4.98875 12.8041 5.07154 12.5535 5.23513 12.3581C5.39872 12.1626 5.63076 12.037 5.88386 12.0069L6.00086 11.9999H11.0009ZM19.2939 3.29292C19.4738 3.11357 19.7153 3.00944 19.9692 3.00169C20.2232 2.99393 20.4706 3.08313 20.6611 3.25116C20.8517 3.4192 20.9712 3.65347 20.9953 3.90639C21.0194 4.15931 20.9463 4.41192 20.7909 4.61292L20.7079 4.70691L15.4149 9.99992H18.0009C18.2557 10.0002 18.5009 10.0978 18.6862 10.2728C18.8716 10.4477 18.9831 10.6869 18.998 10.9413C19.013 11.1958 18.9302 11.4463 18.7666 11.6417C18.603 11.8372 18.371 11.9628 18.1179 11.9929L18.0009 11.9999H13.0009C12.7559 11.9999 12.5195 11.91 12.3365 11.7472C12.1535 11.5844 12.0365 11.3602 12.0079 11.1169L12.0009 10.9999V5.99992C12.0011 5.74504 12.0987 5.49988 12.2737 5.31455C12.4487 5.12921 12.6878 5.01768 12.9423 5.00274C13.1967 4.98781 13.4472 5.07059 13.6427 5.23418C13.8381 5.39777 13.9638 5.62982 13.9939 5.88292L14.0009 5.99992V8.58592L19.2939 3.29292Z" fill="black"/>
</g>
<defs>
<clipPath id="clip0_1884_955">
<rect width="24" height="24" fill="white"/>
</clipPath>
</defs>
</svg>
