<svg width="24" height="24" viewBox="0 0 24 24" fill="none" xmlns="http://www.w3.org/2000/svg">
<g clip-path="url(#clip0_1611_91)">
<path fill-rule="evenodd" clip-rule="evenodd" d="M21.593 9.4726C22.2831 9.45309 22.8267 8.87786 22.8071 8.18778L21.5576 8.2231C22.8071 8.18778 22.8071 8.18773 22.8071 8.18766L22.8071 8.18743L22.8071 8.18663L22.807 8.18367L22.8067 8.17239L22.8054 8.1292L22.8004 7.96659C22.796 7.82674 22.7895 7.62703 22.7809 7.38677C22.7637 6.90679 22.7383 6.26251 22.7053 5.6092C22.6725 4.95933 22.6316 4.28635 22.5827 3.7543C22.5585 3.49147 22.5304 3.24029 22.4966 3.03564C22.4802 2.93615 22.4579 2.81874 22.426 2.70506C22.4102 2.64877 22.3852 2.56836 22.3468 2.48033C22.3181 2.41454 22.2357 2.23307 22.0633 2.06064C21.8908 1.8882 21.7093 1.8058 21.6436 1.77708C21.5555 1.73866 21.4751 1.71367 21.4188 1.69788C21.3052 1.66599 21.1877 1.64365 21.0882 1.62725C20.8836 1.5935 20.6324 1.56539 20.3696 1.54123C19.8375 1.49231 19.1646 1.45138 18.5147 1.41858C17.8614 1.38562 17.2171 1.36018 16.7371 1.34301C16.4969 1.33441 16.2972 1.32786 16.1573 1.32345L15.9947 1.31846L15.9515 1.31719L15.9402 1.31686L15.9373 1.31678L15.9365 1.31676L15.9362 1.31675C15.9362 1.31675 15.9361 1.31675 15.9008 2.56625L15.9361 1.31675C15.246 1.29724 14.6708 1.84084 14.6513 2.53092C14.6318 3.221 15.1754 3.79624 15.8655 3.81575L15.9008 2.56625L15.8655 3.81575L15.8656 3.81575L15.8662 3.81577L15.8687 3.81584L15.879 3.81614L15.9203 3.81735L16.0786 3.82221C16.2154 3.82652 16.4115 3.83296 16.6477 3.84141C17.1206 3.85833 17.7518 3.88327 18.3887 3.91541C18.405 3.91623 18.4213 3.91706 18.4376 3.91789L12.9444 9.41113C12.4562 9.89928 12.4562 10.6907 12.9444 11.1789C13.4325 11.667 14.224 11.667 14.7121 11.1789L20.2059 5.6851C20.2068 5.70179 20.2076 5.71849 20.2085 5.7352C20.2406 6.37207 20.2656 7.00324 20.2825 7.47617C20.2909 7.71236 20.2974 7.90847 20.3017 8.04532L20.3065 8.20362L20.3078 8.24487L20.3081 8.25522L20.3081 8.25773L20.3081 8.25831L20.3081 8.25842L21.5576 8.2231L20.3081 8.25843C20.3277 8.94851 20.9029 9.49211 21.593 9.4726Z" fill="black"/>
<path fill-rule="evenodd" clip-rule="evenodd" d="M2.4386 14.6973C1.74852 14.7168 1.20488 15.292 1.22436 15.9821L2.47386 15.9468C1.22436 15.9821 1.22436 15.9821 1.22436 15.9822L1.22437 15.9824L1.22439 15.9832L1.22447 15.9862L1.2248 15.9975L1.22607 16.0407L1.23105 16.2033C1.23545 16.3431 1.24199 16.5428 1.25057 16.7831C1.26773 17.2631 1.29313 17.9074 1.32606 18.5608C1.35883 19.2107 1.39973 19.8837 1.44862 20.4158C1.47277 20.6786 1.50087 20.9298 1.5346 21.1345C1.55101 21.234 1.57334 21.3514 1.60522 21.4651C1.62101 21.5213 1.646 21.6018 1.68442 21.6898C1.71314 21.7556 1.79554 21.9371 1.96799 22.1095C2.14044 22.282 2.32194 22.3644 2.38773 22.3931C2.47577 22.4315 2.55618 22.4565 2.61247 22.4723C2.72615 22.5042 2.84357 22.5265 2.94307 22.5429C3.14772 22.5767 3.39891 22.6048 3.66176 22.6289C4.19384 22.6778 4.86685 22.7187 5.51675 22.7515C6.17009 22.7844 6.8144 22.8098 7.2944 22.8269C7.53468 22.8355 7.7344 22.8421 7.87426 22.8465L8.03687 22.8515L8.08006 22.8527L8.09135 22.853L8.09431 22.8531L8.09511 22.8532L8.09534 22.8532C8.0954 22.8532 8.09545 22.8532 8.13071 21.6037L8.09545 22.8532C8.78553 22.8726 9.36074 22.329 9.38021 21.6389C9.39969 20.9488 8.85605 20.3736 8.16597 20.3542L8.16585 20.3542L8.16528 20.3541L8.16277 20.3541L8.15241 20.3538L8.11117 20.3526L7.95285 20.3477C7.816 20.3434 7.61988 20.337 7.38367 20.3285C6.91073 20.3116 6.27952 20.2867 5.64262 20.2546C5.62624 20.2538 5.60988 20.253 5.59352 20.2521L11.0873 14.7583C11.5755 14.2702 11.5755 13.4787 11.0873 12.9906C10.5992 12.5024 9.80772 12.5024 9.31957 12.9906L3.82542 18.4847C3.82457 18.4681 3.82373 18.4515 3.82289 18.4349C3.79079 17.798 3.76588 17.1668 3.74898 16.6938C3.74054 16.4576 3.73412 16.2615 3.72982 16.1247L3.72496 15.9664L3.72375 15.9251L3.72345 15.9148L3.72338 15.9122L3.72336 15.9117L3.72336 15.9116L2.47386 15.9468L3.72336 15.9115C3.70389 15.2215 3.12868 14.6778 2.4386 14.6973Z" fill="black"/>
</g>
<defs>
<clipPath id="clip0_1611_91">
<rect width="24" height="24" fill="white"/>
</clipPath>
</defs>
</svg>
