<svg width="25" height="25" viewBox="0 0 25 25" fill="none" xmlns="http://www.w3.org/2000/svg">
<path d="M12.1937 21.0125C9.69373 21.012 7.5689 20.1366 5.81924 18.3863C4.06959 16.6359 3.195 14.5107 3.1955 12.0107C3.19599 9.51074 4.07141 7.38591 5.82175 5.63626C7.57209 3.8866 9.69727 3.01202 12.1973 3.01251C12.4306 3.01256 12.6599 3.02094 12.8853 3.03765C13.1099 3.05436 13.3306 3.0794 13.5472 3.11278C12.8638 3.59598 12.318 4.22487 11.9099 4.99946C11.5011 5.77471 11.2966 6.61233 11.2964 7.51233C11.2961 9.01233 11.8208 10.2874 12.8706 11.3376C13.9204 12.3879 15.1953 12.9131 16.6953 12.9134C17.612 12.9136 18.4537 12.7094 19.2204 12.3009C19.9872 11.893 20.6123 11.3475 21.0958 10.6643C21.1291 10.8809 21.154 11.1016 21.1706 11.3263C21.1873 11.5516 21.1955 11.7809 21.1955 12.0143C21.195 14.5143 20.3196 16.6391 18.5692 18.3888C16.8189 20.1384 14.6937 21.013 12.1937 21.0125ZM12.1941 19.0125C13.6608 19.0128 14.9775 18.6091 16.1444 17.8013C17.3112 16.9929 18.1614 15.9387 18.695 14.6388C18.3616 14.7221 18.0283 14.7887 17.6949 14.8386C17.3616 14.8885 17.0283 14.9135 16.6949 14.9134C14.6449 14.913 12.8991 14.192 11.4574 12.7504C10.0163 11.3081 9.29598 9.56194 9.29638 7.51194C9.29645 7.17861 9.32151 6.84528 9.37158 6.51196C9.42164 6.17863 9.48838 5.84531 9.57177 5.512C8.27167 6.04507 7.2175 6.89487 6.40927 8.06137C5.60038 9.22788 5.19578 10.5445 5.1955 12.0111C5.19512 13.9445 5.87813 15.5946 7.24452 16.9615C8.61092 18.3285 10.2608 19.0121 12.1941 19.0125Z" fill="currentColor"/>
</svg>
