<svg width="24" height="24" viewBox="0 0 24 24" fill="none" xmlns="http://www.w3.org/2000/svg">
<path d="M6 15.1992H14V13.1992H6V15.1992ZM6 12.1992H18V10.1992H6V12.1992ZM15.2 15.1992H18V13.1992H15.2V15.1992ZM2.584 18.6152C2.16103 18.1923 2 17.7974 2 17.1992C2 12.7992 2 5.19922 2 5.19922C2 4.64922 2.19583 4.17839 2.5875 3.78672C2.97917 3.39505 3.45 3.19922 4 3.19922H20C20.55 3.19922 21.0208 3.39505 21.4125 3.78672C21.8042 4.17839 22 4.64922 22 5.19922V17.1992C22 17.7492 21.8042 18.2201 21.4125 18.6117C21.0208 19.0034 20.55 19.1992 20 19.1992H14.4L12 21.1992L9.6 19.1992C9.6 19.1992 4.85513 19.1992 4 19.1992C3.40183 19.1992 3.00697 19.0382 2.584 18.6152ZM5.15 17.1992H20V5.19922H4V17.1992H5.15Z" fill="currentColor"/>
</svg>
