<svg width="25" height="25" viewBox="0 0 25 25" fill="none" xmlns="http://www.w3.org/2000/svg">
<g clip-path="url(#clip0_515_804)">
<path d="M12.1974 5.27956C10.8623 5.27929 9.55721 5.67492 8.44703 6.4164C7.33686 7.15788 6.47149 8.21192 5.96035 9.44522C5.44922 10.6785 5.31528 12.0357 5.57547 13.3451C5.83566 14.6545 6.4783 15.8574 7.42212 16.8016C8.36594 17.7458 9.56855 18.3889 10.8779 18.6496C12.1872 18.9103 13.5444 18.7769 14.7779 18.2663C16.0114 17.7556 17.0658 16.8906 17.8077 15.7808C18.5496 14.6709 18.9458 13.3659 18.946 12.0309C18.9439 10.2414 18.2323 8.52584 16.9672 7.26026C15.7021 5.99468 13.9868 5.28239 12.1974 5.27956ZM12.1951 16.5296C11.3051 16.5294 10.4352 16.2653 9.69523 15.7707C8.9553 15.2761 8.37867 14.5731 8.03823 13.7508C7.6978 12.9285 7.60886 12.0237 7.78267 11.1508C7.95647 10.2779 8.38522 9.47616 9.01468 8.84695C9.64414 8.21774 10.446 7.78931 11.319 7.61585C12.1919 7.44239 13.0967 7.53168 13.9189 7.87244C14.7411 8.21319 15.4438 8.79011 15.9381 9.53022C16.4325 10.2703 16.6962 11.1404 16.696 12.0304C16.6958 13.2239 16.2215 14.3684 15.3774 15.2122C14.5333 16.0559 13.3886 16.5298 12.1951 16.5296ZM11.0729 2.65433L11.073 1.90433C11.0731 1.60597 11.1917 1.31984 11.4027 1.1089C11.6137 0.897967 11.8999 0.779497 12.1982 0.779555C12.4966 0.779614 12.7827 0.898197 12.9937 1.10922C13.2046 1.32024 13.3231 1.60641 13.323 1.90478L13.3229 2.65478C13.3228 2.95315 13.2042 3.23927 12.9932 3.45021C12.7822 3.66114 12.496 3.77961 12.1977 3.77956C11.8993 3.7795 11.6132 3.66091 11.4022 3.44989C11.1913 3.23887 11.0728 2.9527 11.0729 2.65433ZM18.0284 6.19945C17.9236 6.09491 17.8404 5.97071 17.7836 5.83395C17.7269 5.69719 17.6977 5.55058 17.6977 5.40251C17.6977 5.25445 17.727 5.10784 17.7838 4.97111C17.8406 4.83437 17.9238 4.7102 18.0287 4.6057L18.5632 4.07143C18.7746 3.86013 19.0613 3.74145 19.3602 3.74151C19.659 3.74157 19.9457 3.86036 20.157 4.07175C20.3683 4.28313 20.4869 4.5698 20.4869 4.86868C20.4868 5.16757 20.368 5.45419 20.1567 5.66549L19.6222 6.19977C19.5174 6.30413 19.3931 6.38681 19.2564 6.44308C19.1196 6.49936 18.9731 6.52813 18.8252 6.52773C18.527 6.52638 18.2411 6.40858 18.0284 6.19945ZM23.446 12.0318C23.446 12.3301 23.3274 12.6163 23.1164 12.8272C22.9053 13.0381 22.6192 13.1566 22.3208 13.1565L21.5708 13.1564C21.2724 13.1563 20.9863 13.0378 20.7754 12.8267C20.5644 12.6157 20.446 12.3295 20.446 12.0312C20.4461 11.7328 20.5647 11.4467 20.7757 11.2357C20.9867 11.0248 21.2729 10.9063 21.5713 10.9064L22.3213 10.9065C22.6196 10.9066 22.9057 11.0252 23.1167 11.2362C23.3276 11.4472 23.4461 11.7334 23.446 12.0318ZM20.1542 18.3967C20.3614 18.6102 20.4773 18.8961 20.4773 19.1937C20.4772 19.4912 20.3612 19.7771 20.1538 19.9905C19.94 20.1979 19.6548 20.3153 19.3569 20.3185C19.209 20.3188 19.0625 20.29 18.9258 20.2336C18.7891 20.1773 18.6648 20.0946 18.5601 19.9902L18.0258 19.4557C17.8145 19.2443 17.6958 18.9576 17.6959 18.6588C17.696 18.3599 17.8147 18.0733 18.0261 17.862C18.2375 17.6506 18.5242 17.532 18.8231 17.532C19.122 17.5321 19.4086 17.6509 19.6199 17.8623L20.1542 18.3967ZM13.3192 21.4048L13.319 22.1548C13.319 22.4531 13.2004 22.7393 12.9894 22.9502C12.7784 23.1611 12.4922 23.2796 12.1938 23.2796C11.8955 23.2795 11.6093 23.1609 11.3984 22.9499C11.1875 22.7389 11.069 22.4527 11.069 22.1543L11.0692 21.4043C11.0692 21.106 11.1878 20.8198 11.3988 20.6089C11.6099 20.398 11.896 20.2795 12.1944 20.2796C12.4928 20.2796 12.7789 20.3982 12.9898 20.6092C13.2008 20.8202 13.3192 21.1064 13.3192 21.4048ZM6.36363 17.8597C6.46849 17.9642 6.55169 18.0884 6.60844 18.2252C6.66519 18.3619 6.69439 18.5085 6.69436 18.6566C6.69434 18.8047 6.66508 18.9513 6.60827 19.088C6.55146 19.2247 6.46822 19.3489 6.36332 19.4534L5.82884 19.9877C5.72408 20.092 5.59977 20.1747 5.46302 20.231C5.32627 20.2873 5.17977 20.316 5.0319 20.3156C4.73405 20.3123 4.44883 20.1948 4.23509 19.9874C4.02781 19.7739 3.9119 19.488 3.91196 19.1904C3.91202 18.8929 4.02804 18.607 4.2354 18.3936L4.76988 17.8593C4.87442 17.7545 4.99863 17.6713 5.13539 17.6145C5.27214 17.5578 5.41876 17.5286 5.56682 17.5286C5.71489 17.5286 5.86149 17.5579 5.99823 17.6147C6.13496 17.6715 6.25914 17.7548 6.36363 17.8597ZM3.94603 12.0279C3.94597 12.3263 3.82739 12.6124 3.61637 12.8234C3.40535 13.0343 3.11918 13.1528 2.82081 13.1527L2.07081 13.1526C1.77244 13.1525 1.48632 13.0339 1.27538 12.8229C1.06444 12.6119 0.945972 12.3257 0.946031 12.0273C0.946089 11.729 1.06467 11.4429 1.27569 11.2319C1.48671 11.021 1.77288 10.9025 2.07125 10.9026L2.82125 10.9027C3.11962 10.9028 3.40575 11.0214 3.61668 11.2324C3.82762 11.4434 3.94609 11.7296 3.94603 12.0279ZM4.23791 5.66237C4.0266 5.45098 3.90793 5.16431 3.90799 4.86543C3.90805 4.56654 4.02683 4.27992 4.23822 4.06862C4.44961 3.85731 4.73627 3.73864 5.03516 3.7387C5.33405 3.73875 5.62067 3.85754 5.83197 4.06893L6.36624 4.60341C6.4711 4.70795 6.55429 4.83215 6.61105 4.96891C6.6678 5.10567 6.697 5.25228 6.69697 5.40035C6.69694 5.54841 6.66768 5.69502 6.61088 5.83175C6.55407 5.96849 6.47083 6.09266 6.36593 6.19716C6.1532 6.40621 5.86723 6.52389 5.56899 6.52513C5.42111 6.52546 5.27463 6.49664 5.1379 6.44031C5.00118 6.38398 4.8769 6.30125 4.77218 6.19685L4.23791 5.66237Z" fill="currentColor"/>
</g>
<defs>
<clipPath id="clip0_515_804">
<rect width="24" height="24" fill="white" transform="translate(0.198242 0.0273438)"/>
</clipPath>
</defs>
</svg>
