<svg width="80" height="80" viewBox="0 0 80 80" xmlns="http://www.w3.org/2000/svg">
<path d="M58 40.3511C58 38.243 71 26.9998 71 26.9998V52.9998C71 52.9998 58 42.4592 58 40.3511Z" />
<path d="M9.00006 49.9998L11.5001 49.9998L9.00006 49.9998ZM19.0002 20L19.0003 17.5L19.0002 20ZM9 30L6.5 30L9 30ZM46.0002 20.0006L46.0001 22.5006L46.0002 20.0006ZM71 26.9998H73.5V21.5323L69.3646 25.1089L71 26.9998ZM71 52.9998L69.4255 54.9416L73.5 58.2453V52.9998H71ZM46.0003 17.5006L19.0003 17.5L19.0002 22.5L46.0001 22.5006L46.0003 17.5006ZM6.5 30L6.50006 49.9998L11.5001 49.9998L11.5 30L6.5 30ZM19.0001 62.4998H46V57.4998H19.0001V62.4998ZM58.5 49.9998V30.0006H53.5V49.9998H58.5ZM46 62.4998C52.9035 62.4998 58.5 56.9033 58.5 49.9998H53.5C53.5 54.1419 50.1421 57.4998 46 57.4998V62.4998ZM6.50006 49.9998C6.50008 56.9033 12.0965 62.4998 19.0001 62.4998V57.4998C14.8579 57.4998 11.5001 54.1419 11.5001 49.9998L6.50006 49.9998ZM19.0003 17.5C12.0966 17.4998 6.49998 23.0963 6.5 30L11.5 30C11.5 25.8578 14.858 22.4999 19.0002 22.5L19.0003 17.5ZM46.0001 22.5006C50.1422 22.5007 53.5 25.8586 53.5 30.0006H58.5C58.5 23.0972 52.9037 17.5008 46.0003 17.5006L46.0001 22.5006ZM71 26.9998C69.3646 25.1089 69.3645 25.109 69.3643 25.1091C69.3641 25.1092 69.3639 25.1094 69.3637 25.1097C69.3631 25.1101 69.3624 25.1107 69.3615 25.1115C69.3597 25.1131 69.3571 25.1153 69.3538 25.1182C69.3471 25.124 69.3373 25.1325 69.3245 25.1436C69.2989 25.1658 69.2614 25.1984 69.2128 25.2407C69.1155 25.3253 68.9736 25.4491 68.7936 25.6069C68.4335 25.9225 67.9202 26.3747 67.3047 26.9237C66.0752 28.0203 64.4307 29.5091 62.782 31.0687C61.1418 32.6202 59.4604 34.2766 58.1752 35.7007C57.5375 36.4073 56.9508 37.1078 56.5087 37.7411C56.2887 38.0562 56.0676 38.4067 55.8926 38.771C55.7427 39.083 55.5 39.657 55.5 40.3511H60.5C60.5 40.7817 60.3588 41.0209 60.3993 40.9365C60.4147 40.9045 60.4729 40.7973 60.6085 40.6032C60.8773 40.2182 61.3061 39.6944 61.8872 39.0505C63.0395 37.7736 64.6082 36.2239 66.218 34.7011C67.8192 33.1864 69.4248 31.7326 70.6328 30.6552C71.236 30.1172 71.7383 29.6746 72.0892 29.3671C72.2646 29.2134 72.402 29.0935 72.4952 29.0124C72.5418 28.9719 72.5773 28.941 72.6009 28.9205C72.6127 28.9103 72.6215 28.9026 72.6273 28.8976C72.6302 28.8951 72.6323 28.8933 72.6337 28.8921C72.6343 28.8915 72.6348 28.8911 72.6351 28.8909C72.6352 28.8908 72.6353 28.8907 72.6354 28.8906C72.6354 28.8906 72.6353 28.8907 71 26.9998ZM55.5 40.3511C55.5 41.053 55.7473 41.6292 55.904 41.9466C56.0845 42.3125 56.3115 42.6598 56.535 42.9679C56.9841 43.587 57.5774 44.2627 58.2176 44.9375C59.5084 46.298 61.1945 47.8677 62.8359 49.3317C64.4867 50.804 66.1328 52.2053 67.3632 53.2362C67.9792 53.7523 68.493 54.1772 68.8534 54.4736C69.0337 54.6219 69.1757 54.7381 69.2732 54.8176C69.3219 54.8574 69.3595 54.888 69.3851 54.9089C69.3979 54.9193 69.4078 54.9273 69.4145 54.9328C69.4179 54.9355 69.4205 54.9376 69.4223 54.9391C69.4233 54.9399 69.424 54.9404 69.4245 54.9409C69.4248 54.9411 69.425 54.9413 69.4251 54.9414C69.4253 54.9415 69.4255 54.9416 71 52.9998C72.5745 51.0579 72.5745 51.0579 72.5745 51.0579C72.5744 51.0578 72.5744 51.0578 72.5743 51.0577C72.574 51.0575 72.5735 51.0571 72.5729 51.0566C72.5715 51.0555 72.5694 51.0538 72.5666 51.0514C72.5608 51.0468 72.552 51.0396 72.5402 51.0301C72.5167 51.0109 72.4813 50.9821 72.4348 50.9441C72.3418 50.8682 72.2045 50.7559 72.0293 50.6118C71.6789 50.3236 71.177 49.9085 70.5743 49.4036C69.3672 48.3922 67.7632 47.0266 66.164 45.6002C64.5555 44.1656 62.9916 42.7049 61.8449 41.4962C61.2663 40.8863 60.8439 40.3927 60.5821 40.0318C60.4502 39.8499 60.3979 39.7546 60.388 39.7345C60.3542 39.6659 60.5 39.9128 60.5 40.3511H55.5ZM73.5 52.9998V26.9998H68.5V52.9998H73.5Z" />
</svg>
