<svg width="24" height="24" viewBox="0 0 24 24" fill="none" xmlns="http://www.w3.org/2000/svg">
<g clip-path="url(#clip0_1611_109)">
<path d="M-0.0263672 8.70003C-0.0263672 8.09252 0.466122 7.60003 1.07364 7.60003H4.37365C4.37365 7.60003 5.99985 5.87167 7.12366 4.85002C8.05521 4.00316 9.33712 3.00956 10.363 2.24388C11.0767 1.71119 12.0737 2.22552 12.0737 3.1161V20.884C12.0737 21.7746 11.0767 22.2889 10.363 21.7562C9.33712 20.9905 8.05521 19.9969 7.12366 19.1501C5.99985 18.1284 4.37365 16.4001 4.37365 16.4001H1.07364C0.466122 16.4001 -0.0263672 15.9076 -0.0263672 15.3001V8.70003Z" fill="black"/>
<path d="M15 16C15 16 16.8135 14.6924 16.8135 12.0962C16.8135 9.5 15 8 15 8" stroke="black" stroke-width="2.5" stroke-linecap="round"/>
<path d="M18.5 20.5C18.5 20.5 22 18 22 12C22 6 18.5 3.5 18.5 3.5" stroke="black" stroke-width="2.5" stroke-linecap="round"/>
</g>
<defs>
<clipPath id="clip0_1611_109">
<rect width="24" height="24" fill="white"/>
</clipPath>
</defs>
</svg>
