<svg width="384" height="384" viewBox="0 0 384 384" fill="none" xmlns="http://www.w3.org/2000/svg">
<path d="M375.705 103.164C392.854 75.8717 382.412 39.3487 353.599 25.8428C329.143 14.3788 300.186 23.8922 286.803 47.7886L153 286.689C140.302 309.361 148.442 338.299 170.972 350.574C191.719 361.878 217.462 355.003 230.179 334.762L375.705 103.164Z" fill="url(#paint0_linear_635_7)"/>
<path d="M384 74.4376C384 44.9248 360.719 21 332 21C303.281 21 280 44.9248 280 74.4376V309.563C280 339.075 303.281 363 332 363C360.719 363 384 339.075 384 309.563V74.4376Z" fill="url(#paint1_linear_635_7)"/>
<path d="M0 74.4376C0 44.9248 23.2812 21 52.0001 21C80.7188 21 104 44.9248 104 74.4376V309.563C104 339.075 80.7188 363 52.0001 363C23.2812 363 0 339.075 0 309.563V74.4376Z" fill="url(#paint2_linear_635_7)"/>
<path d="M8.29516 103.164C-8.85396 75.8717 1.58762 39.3487 30.4006 25.8428C54.8573 14.3788 83.8135 23.8922 97.1972 47.7886L231 286.689C243.698 309.361 235.558 338.299 213.028 350.574C192.281 361.878 166.538 355.003 153.821 334.762L8.29516 103.164Z" fill="url(#paint3_linear_635_7)"/>
<defs>
<linearGradient id="paint0_linear_635_7" x1="178.228" y1="21.0255" x2="178.228" y2="364.974" gradientUnits="userSpaceOnUse">
<stop stop-color="#227C9D"/>
<stop offset="0.990385" stop-color="#51E7B4"/>
</linearGradient>
<linearGradient id="paint1_linear_635_7" x1="192.078" y1="19.7852" x2="192.078" y2="363" gradientUnits="userSpaceOnUse">
<stop stop-color="#52ECB4"/>
<stop offset="1" stop-color="#227C9D"/>
</linearGradient>
<linearGradient id="paint2_linear_635_7" x1="191.922" y1="19.7852" x2="191.922" y2="363" gradientUnits="userSpaceOnUse">
<stop stop-color="#526983"/>
<stop offset="1" stop-color="#25A3A3"/>
</linearGradient>
<linearGradient id="paint3_linear_635_7" x1="205.772" y1="21.0255" x2="205.772" y2="364.974" gradientUnits="userSpaceOnUse">
<stop stop-color="#44FAB9"/>
<stop offset="1" stop-color="#25A3A3"/>
</linearGradient>
</defs>
</svg>
