<svg width="461" height="142" viewBox="0 0 461 142" fill="none" xmlns="http://www.w3.org/2000/svg">
<mask id="mask0_3452_1169" style="mask-type:luminance" maskUnits="userSpaceOnUse" x="0" y="0" width="461" height="142">
<path d="M460.8 0H0V141.7H460.8V0Z" fill="white"/>
</mask>
<g mask="url(#mask0_3452_1169)">
<path d="M410.9 92.9996H407V113.3H411.3V102.4C411.3 100.4 411.7 98.8996 412.4 97.8996C413.1 96.8996 414.2 96.3996 415.7 96.3996H418V92.6996C417.4 92.5996 416.8 92.5996 416.1 92.5996C414.1 92.5996 412.6 93.4996 411.4 95.1996L410.9 92.9996ZM303.3 85.0996H299V113.3H303.3V102.3C303.3 98.2996 304.8 96.3996 307.8 96.3996C309.4 96.3996 310.6 96.8996 311.3 97.7996C312 98.6996 312.4 100.2 312.4 102.3V113.3H316.7V102.3C316.7 98.9996 316.1 96.5996 314.8 95.0996C313.5 93.4996 311.5 92.6996 308.7 92.6996C307.5 92.6996 306.4 92.9996 305.5 93.4996C304.6 93.9996 303.8 94.5996 303.3 95.2996V85.0996ZM303.1 53.8996H298.8V74.0996H303.1V53.8996ZM303.3 45.8996H298.4V50.6996H303.3V45.8996ZM279.3 95.4996C277.6 97.3996 276.7 99.9996 276.7 103.1C276.7 106.3 277.6 108.8 279.3 110.7C281 112.6 283.4 113.6 286.3 113.6C287.6 113.6 288.7 113.4 289.8 113C290.9 112.6 291.7 112.1 292.5 111.4C293.2 110.7 293.8 110 294.2 109.2C294.6 108.4 295 107.6 295.1 106.7C292.9 106.3 291.5 106 290.8 105.9C290.5 107.1 289.9 108.1 289.2 108.8C288.4 109.5 287.5 109.8 286.3 109.8C284.6 109.8 283.3 109.2 282.4 107.9C281.5 106.7 281 105 281 102.9C281 100.8 281.5 99.1996 282.4 97.8996C283.3 96.6996 284.6 96.0996 286.3 96.0996C287.4 96.0996 288.3 96.3996 289.1 97.0996C289.9 97.7996 290.4 98.6996 290.8 99.9996C291 99.9996 292.5 99.6996 295.1 99.1996C294.9 98.4996 294.7 97.7996 294.4 97.1996C294.1 96.5996 293.7 95.9996 293.2 95.3996C292.7 94.7996 292.1 94.2996 291.5 93.8996C290.9 93.4996 290.1 93.0996 289.2 92.8996C288.3 92.5996 287.4 92.4996 286.3 92.4996C283.3 92.5996 281 93.5996 279.3 95.4996ZM260.6 106.5C260.6 106.5 259.2 106.8 256.4 107.3C256.7 109.2 257.6 110.8 259.1 111.9C260.6 113.1 262.6 113.7 265.1 113.7C267.6 113.7 269.7 113.1 271.3 112C272.9 110.9 273.7 109.3 273.7 107.2C273.7 106.3 273.5 105.5 273.2 104.8C272.9 104.1 272.5 103.6 272 103.1C271.5 102.7 270.9 102.3 270.1 102C269.3 101.7 268.6 101.5 267.8 101.4C267.1 101.3 266.2 101.1 265.2 101C263.9 100.9 262.9 100.6 262.2 100.3C261.6 99.9996 261.2 99.3996 261.2 98.6996C261.2 98.0996 261.5 97.4996 262.2 97.0996C262.9 96.5996 263.7 96.3996 264.8 96.3996C267.4 96.3996 268.8 97.4996 269 99.7996C271.4 99.2996 272.8 99.0996 273.3 98.9996C273.2 97.8996 272.8 96.8996 272.3 96.0996C271.8 95.2996 271.1 94.5996 270.4 94.0996C269.6 93.5996 268.7 93.1996 267.8 92.9996C266.9 92.7996 265.8 92.5996 264.7 92.5996C262.5 92.5996 260.7 93.1996 259.2 94.2996C257.7 95.4996 257 96.8996 257 98.5996C257 99.4996 257.1 100.3 257.4 101C257.7 101.7 258.1 102.2 258.5 102.6C259 103 259.5 103.3 260.2 103.6C260.8 103.9 261.5 104 262.2 104.1C262.9 104.2 263.6 104.3 264.3 104.4C265 104.5 265.6 104.6 266.3 104.7C266.9 104.8 267.5 104.9 268 105.1C268.5 105.3 268.9 105.5 269.1 105.9C269.4 106.2 269.5 106.7 269.5 107.2C269.5 107.8 269.3 108.3 269 108.7C268.6 109.1 268.2 109.4 267.7 109.6C267.2 109.8 266.7 109.9 266.3 109.9C265.9 110 265.6 110 265.3 110C262.5 110 261 108.8 260.6 106.5ZM239.4 85.0996H235.1V113.3H239.4V102.3C239.4 98.2996 240.9 96.3996 243.9 96.3996C245.5 96.3996 246.7 96.8996 247.4 97.7996C248.1 98.6996 248.5 100.2 248.5 102.3V113.3H252.8V102.3C252.8 98.9996 252.2 96.5996 250.9 95.0996C249.6 93.4996 247.6 92.6996 244.8 92.6996C243.6 92.6996 242.5 92.9996 241.6 93.4996C240.7 93.9996 239.9 94.5996 239.4 95.2996V85.0996ZM235.5 63.9996C235.5 66.1996 235 67.8996 234.1 69.0996C233.2 70.2996 231.9 70.8996 230.4 70.8996C228.8 70.8996 227.6 70.2996 226.7 69.0996C225.8 67.8996 225.3 66.1996 225.3 63.9996C225.3 61.7996 225.8 60.1996 226.7 58.9996C227.6 57.7996 228.9 57.1996 230.4 57.1996C232 57.1996 233.2 57.7996 234.1 58.9996C235 60.0996 235.5 61.7996 235.5 63.9996ZM237.3 71.5996C239 69.6996 239.8 67.0996 239.8 63.9996C239.8 60.8996 238.9 58.2996 237.2 56.3996C235.5 54.4996 233.2 53.4996 230.3 53.4996C227.4 53.4996 225.1 54.4996 223.4 56.3996C221.7 58.2996 220.9 60.8996 220.9 63.9996C220.9 67.1996 221.7 69.6996 223.4 71.5996C225.1 73.4996 227.4 74.4996 230.3 74.4996C233.3 74.4996 235.6 73.4996 237.3 71.5996ZM215.3 95.4996C213.6 97.3996 212.7 99.9996 212.7 103.1C212.7 106.3 213.6 108.8 215.3 110.7C217 112.6 219.4 113.6 222.3 113.6C223.6 113.6 224.7 113.4 225.8 113C226.9 112.6 227.7 112.1 228.5 111.4C229.2 110.7 229.8 110 230.2 109.2C230.6 108.4 231 107.6 231.1 106.7C228.9 106.3 227.5 106 226.8 105.9C226.5 107.1 225.9 108.1 225.1 108.8C224.3 109.5 223.4 109.8 222.2 109.8C220.5 109.8 219.2 109.2 218.3 107.9C217.4 106.6 216.9 105 216.9 102.9C216.9 100.8 217.4 99.1996 218.3 97.8996C219.2 96.6996 220.5 96.0996 222.2 96.0996C223.3 96.0996 224.2 96.3996 225 97.0996C225.8 97.7996 226.3 98.6996 226.7 99.9996C226.9 99.9996 228.4 99.6996 231 99.1996C230.8 98.4996 230.6 97.7996 230.3 97.1996C230 96.5996 229.6 95.9996 229.1 95.3996C228.6 94.7996 228 94.2996 227.4 93.8996C226.8 93.4996 226 93.0996 225.1 92.8996C224.2 92.5996 223.3 92.4996 222.2 92.4996C219.4 92.5996 217.1 93.5996 215.3 95.4996ZM195.6 103.1C195.6 100.9 196.1 99.2996 197 98.0996C197.9 96.8996 199.2 96.2996 200.7 96.2996C202.3 96.2996 203.5 96.8996 204.4 98.0996C205.3 99.2996 205.8 101 205.8 103.1C205.8 105.3 205.3 107 204.4 108.2C203.5 109.4 202.2 110 200.7 110C199.1 110 197.9 109.4 197 108.2C196 107 195.6 105.3 195.6 103.1ZM193.8 95.4996C192.1 97.3996 191.3 99.9996 191.3 103.1C191.3 106.3 192.1 108.8 193.8 110.7C195.5 112.6 197.8 113.6 200.7 113.6C203.6 113.6 205.9 112.6 207.6 110.7C209.3 108.8 210.1 106.2 210.1 103.1C210.1 99.9996 209.2 97.3996 207.5 95.4996C205.8 93.5996 203.5 92.5996 200.6 92.5996C197.8 92.5996 195.5 93.5996 193.8 95.4996ZM185.5 57.0996C187.1 57.0996 188.3 57.5996 189 58.4996C189.7 59.4996 190.1 60.9996 190.1 62.9996V73.9996H194.4V62.9996C194.4 59.6996 193.8 57.2996 192.5 55.6996C191.3 54.0996 189.2 53.3996 186.3 53.2996C185.1 53.2996 184 53.5996 183 54.0996C182 54.5996 181.3 55.1996 180.9 55.8996L180.5 53.6996H176.6V73.8996H180.9V62.8996C181 59.0996 182.5 57.0996 185.5 57.0996ZM171.2 85.0996H166.7V113.3H171.2V100.7H183.3V113.3H187.8V85.0996H183.3V96.8996H171.2V85.0996ZM171.2 45.8996H166.7V74.0996H171.2V45.8996ZM56.7996 94.9996L6.49961 72.5996L69.2996 46.7996L119.6 69.1996L56.7996 94.9996ZM58.8996 136.1V130.6L121.7 104.8V110.3L58.8996 136.1ZM121.8 100.1L58.9996 125.9V119.8L121.8 93.9996V100.1ZM121.7 89.2996L58.8996 115.1V109.1L121.7 83.3996V89.2996ZM121.7 78.5996L58.8996 104.3V98.6996L121.7 72.9996V78.5996ZM121.7 65.3996L71.4996 43.0996V5.89961L121.6 28.4996L121.7 65.3996ZM67.0996 5.69961V11.1996L4.49961 36.8996V31.3996L67.0996 5.69961ZM4.49961 41.5996L67.1996 15.8996V21.8996L4.49961 47.5996V41.5996ZM4.49961 52.3996L67.1996 26.6996V32.6996L4.49961 58.3996V52.3996ZM4.49961 63.0996L67.1996 37.3996V42.9996L4.49961 68.6996V63.0996ZM4.39961 76.4996L54.4996 98.7996V136L4.39961 113.4V76.4996ZM56.6996 141.8L126.1 113.3L126 25.5996L69.2996 0.0996094L0.0996094 28.4996V116.3L56.6996 141.8ZM187.5 25.9996C187.5 25.0996 187.4 24.1996 187.1 23.4996C186.9 22.6996 186.6 22.0996 186.2 21.5996C185.8 21.0996 185.4 20.5996 184.8 20.1996C184.2 19.7996 183.6 19.3996 183.1 19.1996C182.5 18.8996 181.9 18.6996 181.1 18.4996C180.3 18.2996 179.7 18.1996 179.1 18.0996C178.5 17.9996 177.8 17.8996 177.1 17.7996C172.9 17.2996 170.8 15.9996 170.8 13.7996C170.8 12.9996 171 12.3996 171.3 11.7996C171.6 11.1996 172.1 10.7996 172.6 10.3996C173.2 10.0996 173.8 9.79961 174.4 9.69961C175.1 9.49961 175.8 9.49961 176.5 9.49961C177.2 9.49961 177.9 9.59961 178.6 9.79961C179.3 9.99961 179.9 10.2996 180.4 10.6996C181 11.0996 181.4 11.5996 181.8 12.2996C182.2 12.9996 182.4 13.7996 182.5 14.5996L186.8 13.8996C186.7 12.5996 186.4 11.4996 185.8 10.3996C185.2 9.39961 184.4 8.49961 183.5 7.79961C182.5 7.09961 181.4 6.59961 180.2 6.19961C179 5.79961 177.7 5.59961 176.5 5.59961C175.5 5.59961 174.6 5.69961 173.6 5.89961C172.7 6.09961 171.8 6.39961 170.9 6.79961C170 7.19961 169.2 7.79961 168.6 8.39961C167.9 8.99961 167.4 9.79961 167 10.6996C166.6 11.5996 166.4 12.5996 166.4 13.6996C166.4 18.1996 169.9 20.7996 176.8 21.4996C177.4 21.4996 177.9 21.5996 178.3 21.6996C178.7 21.7996 179.2 21.8996 179.7 21.9996C180.2 22.0996 180.6 22.2996 181 22.4996C181.4 22.6996 181.7 22.9996 182 23.2996C182.3 23.5996 182.6 23.9996 182.7 24.3996C182.9 24.8996 182.9 25.3996 182.9 25.8996C182.9 27.3996 182.3 28.4996 181.1 29.2996C179.9 30.0996 178.4 30.4996 176.7 30.4996C175.6 30.4996 174.5 30.2996 173.6 29.8996C172.7 29.4996 172 28.9996 171.5 28.2996C171 27.6996 170.6 26.9996 170.3 26.2996C170 25.5996 169.9 24.8996 169.9 24.1996L165.4 24.9996C165.4 25.8996 165.6 26.6996 165.8 27.5996C166.1 28.3996 166.5 29.2996 167.1 30.0996C167.7 30.8996 168.4 31.5996 169.2 32.2996C170 32.8996 171.1 33.3996 172.4 33.7996C173.7 34.1996 175.1 34.3996 176.6 34.3996C179.8 34.3996 182.4 33.5996 184.3 32.0996C186.5 30.5996 187.5 28.4996 187.5 25.9996ZM197.1 17.0996H201.3V13.8996H197.1V7.99961H192.8V13.8996H189.3V17.0996H192.8V28.2996C192.8 30.2996 193.2 31.7996 193.9 32.7996C194.7 33.7996 196 34.2996 197.8 34.2996H198.3L200.9 34.0996V30.5996C200.7 30.5996 200.3 30.5996 199.9 30.5996C199.5 30.5996 199.2 30.5996 199 30.5996C198.3 30.5996 197.8 30.4996 197.5 30.0996C197.2 29.7996 197.1 29.2996 197.1 28.3996V17.0996ZM209.1 53.4996C207.9 53.4996 206.8 53.7996 205.8 54.2996C204.8 54.7996 204.1 55.3996 203.7 56.0996L203.3 53.8996H199.4V74.0996H203.7V63.0996C203.7 59.0996 205.2 57.0996 208.2 57.0996C209.8 57.0996 210.9 57.5996 211.7 58.4996C212.4 59.4996 212.8 60.9996 212.8 62.9996V73.9996H217.1V62.9996C217.1 59.6996 216.5 57.2996 215.2 55.6996C214 54.2996 212 53.4996 209.1 53.4996ZM206.2 34.0996H210.5V13.7996H206.2V34.0996ZM206 10.7996H210.9V5.99961H206V10.7996ZM224.2 9.59961H226.6V5.89961H223.6C219.9 5.89961 218 7.69961 218 11.3996V13.8996H214.5V17.0996H218V34.0996H222.3V17.0996H226.1V13.8996H222.3V11.6996C222.5 10.2996 223 9.59961 224.2 9.59961ZM236.5 17.0996H240.7V13.8996H236.5V7.99961H232.2V13.8996H228.7V17.0996H232.2V28.2996C232.2 30.2996 232.6 31.7996 233.3 32.7996C234.1 33.7996 235.4 34.2996 237.2 34.2996H237.7L240.3 34.0996V30.5996C240.1 30.5996 239.7 30.5996 239.3 30.5996C238.9 30.5996 238.6 30.5996 238.4 30.5996C237.7 30.5996 237.2 30.4996 236.9 30.0996C236.6 29.7996 236.5 29.2996 236.5 28.3996V17.0996ZM245.3 53.8996H240.8L248.4 74.0996H252.7L260.2 53.8996H255.7L250.5 68.8996L245.3 53.8996ZM258.5 34.0996H262.4V13.7996H258.1V24.7996C258.1 26.7996 257.7 28.2996 257 29.2996C256.3 30.2996 255.1 30.7996 253.6 30.7996C252 30.7996 250.9 30.2996 250.1 29.3996C249.4 28.4996 249 26.9996 249 24.8996V13.8996H244.7V24.8996C244.7 28.1996 245.3 30.5996 246.5 32.1996C247.7 33.7996 249.7 34.4996 252.5 34.4996C253.8 34.4996 254.9 34.1996 255.9 33.6996C256.9 33.1996 257.6 32.5996 258 31.8996L258.5 34.0996ZM275 65.2996V66.2996C275 67.4996 274.5 68.5996 273.5 69.4996C272.5 70.3996 271.2 70.8996 269.5 70.8996C268.3 70.8996 267.4 70.5996 266.8 70.0996C266.2 69.5996 265.9 68.8996 265.9 68.0996C265.9 67.7996 266 67.4996 266.1 67.1996C266.2 66.8996 266.4 66.5996 266.7 66.2996C267 65.9996 267.4 65.6996 268 65.4996C268.6 65.2996 269.3 65.1996 270.2 65.1996H275V65.2996ZM270.7 53.4996C269.2 53.4996 267.9 53.6996 266.7 54.1996C265.5 54.6996 264.5 55.3996 263.7 56.3996C262.9 57.3996 262.4 58.5996 262.3 60.0996C262.8 60.1996 263.5 60.2996 264.5 60.4996C265.5 60.6996 266.2 60.7996 266.6 60.8996C266.6 59.6996 267 58.7996 267.7 58.1996C268.4 57.5996 269.4 57.2996 270.7 57.2996C271.4 57.2996 272 57.3996 272.6 57.4996C273.1 57.6996 273.6 57.8996 273.9 58.0996C274.2 58.2996 274.5 58.5996 274.7 58.9996C274.9 59.2996 275 59.6996 275.1 59.9996C275.2 60.2996 275.2 60.5996 275.2 60.9996V62.1996H270C267.5 62.1996 265.4 62.7996 264 63.9996C262.5 65.1996 261.8 66.5996 261.8 68.2996C261.8 70.1996 262.5 71.7996 263.8 72.9996C265.1 74.1996 267 74.7996 269.3 74.7996C270.8 74.7996 272.1 74.3996 273.2 73.7996C274.3 73.1996 275.1 72.4996 275.7 71.7996C275.9 72.6996 276.2 73.3996 276.8 73.8996C277.4 74.3996 278.2 74.6996 279.2 74.6996C280.1 74.6996 280.9 74.5996 281.8 74.3996V70.8996C281.5 70.9996 281.2 71.0996 280.8 71.0996C280.4 71.0996 280.1 70.8996 279.9 70.5996C279.7 70.2996 279.7 69.7996 279.7 69.1996V62.1996C279.7 59.3996 279 57.3996 277.5 55.9996C275.7 54.1996 273.5 53.4996 270.7 53.4996ZM281.3 34.0996H285.6V23.0996C285.6 19.7996 285 17.3996 283.7 15.7996C282.5 14.1996 280.4 13.4996 277.5 13.3996C276.3 13.3996 275.2 13.6996 274.2 14.1996C273.2 14.6996 272.5 15.2996 272.1 15.9996L271.7 13.7996H267.8V33.9996H272.1V22.9996C272.1 18.9996 273.6 16.9996 276.6 16.9996C278.2 16.9996 279.3 17.4996 280.1 18.3996C280.8 19.3996 281.2 20.8996 281.2 22.8996V34.0996H281.3ZM285.6 47.9996V53.8996H282.1V57.0996H285.6V68.2996C285.6 70.2996 286 71.7996 286.7 72.7996C287.5 73.7996 288.8 74.2996 290.6 74.2996H291.1L293.7 74.0996V70.5996C293.5 70.5996 293.1 70.5996 292.7 70.5996C292.3 70.5996 292 70.5996 291.8 70.5996C291.1 70.5996 290.6 70.3996 290.3 70.0996C290 69.7996 289.9 69.1996 289.9 68.4996V56.9996H294.1V53.7996H289.9V47.8996H285.6V47.9996ZM304 23.8996C304 26.0996 303.6 27.7996 302.7 28.9996C301.8 30.1996 300.6 30.7996 299 30.7996C297.4 30.7996 296.1 30.1996 295.2 28.9996C294.3 27.7996 293.8 26.0996 293.8 23.8996C293.8 21.6996 294.3 20.0996 295.2 18.8996C296.1 17.6996 297.4 17.0996 299 17.0996C300.6 17.0996 301.8 17.6996 302.7 18.8996C303.6 20.0996 304 21.7996 304 23.8996ZM305.7 39.9996C307.4 38.3996 308.3 36.1996 308.3 33.1996V13.7996H304.3L303.9 16.3996C303.5 15.5996 302.8 14.8996 301.7 14.2996C300.6 13.6996 299.5 13.3996 298.2 13.3996C295.6 13.3996 293.4 14.3996 291.8 16.2996C290.1 18.2996 289.3 20.7996 289.3 23.8996C289.3 26.9996 290.1 29.4996 291.8 31.4996C293.5 33.4996 295.6 34.3996 298.2 34.3996C299.4 34.3996 300.5 34.0996 301.6 33.5996C302.7 33.0996 303.5 32.3996 303.9 31.5996V33.0996C303.9 34.7996 303.5 36.0996 302.6 37.0996C301.7 38.0996 300.5 38.5996 298.9 38.5996C297.8 38.5996 296.8 38.2996 295.9 37.7996C295 37.2996 294.5 36.5996 294.3 35.7996L290.1 36.9996C290.5 38.6996 291.5 39.9996 293.1 40.8996C294.7 41.7996 296.6 42.2996 298.9 42.2996C301.7 42.3996 304 41.5996 305.7 39.9996ZM322.1 63.9996C322.1 66.1996 321.6 67.8996 320.7 69.0996C319.8 70.2996 318.5 70.8996 317 70.8996C315.4 70.8996 314.2 70.2996 313.3 69.0996C312.4 67.8996 311.9 66.1996 311.9 63.9996C311.9 61.7996 312.4 60.1996 313.3 58.9996C314.2 57.7996 315.5 57.1996 317 57.1996C318.6 57.1996 319.8 57.7996 320.7 58.9996C321.7 60.0996 322.1 61.7996 322.1 63.9996ZM323.9 71.5996C325.6 69.6996 326.4 67.0996 326.4 63.9996C326.4 60.8996 325.5 58.2996 323.8 56.3996C322.1 54.4996 319.8 53.4996 316.9 53.4996C314 53.4996 311.7 54.4996 310 56.3996C308.3 58.2996 307.5 60.8996 307.5 63.9996C307.5 67.1996 308.3 69.6996 310 71.5996C311.7 73.4996 314 74.4996 316.9 74.4996C319.9 74.4996 322.2 73.4996 323.9 71.5996ZM329.8 110C328.2 110 327.1 109.5 326.3 108.6C325.6 107.7 325.2 106.2 325.2 104.1V93.0996H320.9V104.1C320.9 107.4 321.5 109.8 322.7 111.4C323.9 113 325.9 113.7 328.7 113.7C330 113.7 331.1 113.4 332.1 112.9C333.1 112.4 333.8 111.8 334.2 111.1L334.6 113.3H338.5V93.0996H334.3V104.1C334.3 106.1 333.9 107.6 333.2 108.6C332.4 109.5 331.3 110 329.8 110ZM344.1 74.0996H348.4V63.0996C348.4 59.7996 347.8 57.3996 346.5 55.7996C345.3 54.1996 343.2 53.4996 340.3 53.3996C339.1 53.3996 338 53.6996 337 54.1996C336 54.6996 335.3 55.2996 334.9 55.9996L334.5 53.7996H330.6V73.9996H334.9V62.9996C334.9 58.9996 336.4 56.9996 339.4 56.9996C341 56.9996 342.1 57.4996 342.9 58.3996C343.6 59.3996 344 60.8996 344 62.8996V74.0996H344.1ZM344.1 113.3H348.4V85.0996H344.1V113.3ZM353.8 113.3H358.1V85.0996H353.8V113.3ZM362.5 50.7996H367.4V45.9996H362.5V50.7996ZM367.1 53.8996H362.8V74.0996H367.1V53.8996ZM375.9 101.2H366.7C366.8 99.8996 367.2 98.6996 368 97.7996C368.8 96.7996 369.9 96.3996 371.3 96.3996C372.7 96.3996 373.8 96.7996 374.6 97.6996C375.4 98.4996 375.8 99.6996 375.9 101.2ZM378 95.2996C376.4 93.4996 374.1 92.5996 371.3 92.5996C368.5 92.5996 366.2 93.5996 364.5 95.4996C362.8 97.3996 361.9 99.9996 361.9 103.1C361.9 106.2 362.8 108.7 364.6 110.7C366.4 112.6 368.7 113.6 371.4 113.6C372.7 113.6 373.9 113.4 375 113C376.1 112.6 377 112.1 377.7 111.5C378.4 110.9 379 110.2 379.5 109.5C380 108.8 380.3 108 380.6 107.3C378.3 106.6 376.9 106.2 376.6 106.2C376.1 107.5 375.4 108.5 374.5 109.1C373.6 109.7 372.5 110 371.4 110C370 110 368.8 109.5 367.8 108.4C366.9 107.3 366.4 106 366.3 104.5H380.2C380.3 104 380.3 103.4 380.3 102.6C380.5 99.4996 379.7 97.0996 378 95.2996ZM386.3 74.0996H390.6V63.0996C390.6 59.7996 390 57.3996 388.7 55.7996C387.5 54.1996 385.4 53.4996 382.5 53.3996C381.3 53.3996 380.2 53.6996 379.2 54.1996C378.2 54.6996 377.5 55.2996 377.1 55.9996L376.7 53.7996H372.8V73.9996H377.1V62.9996C377.1 58.9996 378.6 56.9996 381.6 56.9996C383.2 56.9996 384.3 57.4996 385.1 58.3996C385.8 59.3996 386.2 60.8996 386.2 62.8996V74.0996H386.3ZM398.3 113.3H402.6V102.3C402.6 98.9996 402 96.5996 400.7 95.0996C399.4 93.4996 397.4 92.6996 394.6 92.6996C393.4 92.6996 392.3 92.9996 391.4 93.4996C390.5 93.9996 389.7 94.5996 389.2 95.2996V85.1996H384.9V113.3H389.2V102.3C389.2 98.2996 390.7 96.3996 393.7 96.3996C395.3 96.3996 396.5 96.8996 397.2 97.7996C397.9 98.6996 398.3 100.2 398.3 102.3V113.3ZM418.1 63.9996C418.1 66.1996 417.7 67.8996 416.8 69.0996C415.9 70.2996 414.7 70.8996 413.1 70.8996C411.5 70.8996 410.2 70.2996 409.3 69.0996C408.4 67.8996 407.9 66.1996 407.9 64.0996C407.9 61.8996 408.4 60.2996 409.3 59.0996C410.2 57.8996 411.5 57.2996 413.1 57.2996C414.7 57.2996 415.9 57.8996 416.8 59.0996C417.7 60.0996 418.1 61.7996 418.1 63.9996ZM418.5 74.0996H422.5V45.8996H418.2V56.2996C417.7 55.5996 416.9 54.9996 415.8 54.3996C414.7 53.7996 413.6 53.4996 412.3 53.4996C409.6 53.4996 407.5 54.4996 405.9 56.3996C404.3 58.2996 403.5 60.8996 403.5 63.9996C403.5 67.0996 404.3 69.5996 406 71.5996C407.6 73.5996 409.7 74.4996 412.3 74.4996C413.6 74.4996 414.8 74.1996 415.9 73.5996C417 72.9996 417.7 72.2996 418.2 71.5996L418.5 74.0996ZM426 97.7996C426.8 96.7996 427.9 96.3996 429.3 96.3996C430.7 96.3996 431.8 96.7996 432.6 97.6996C433.4 98.5996 433.8 99.7996 433.8 101.3H424.6C424.8 99.8996 425.2 98.6996 426 97.7996ZM429.3 92.5996C426.5 92.5996 424.2 93.5996 422.5 95.4996C420.8 97.3996 420 99.9996 420 103.1C420 106.2 420.9 108.7 422.7 110.7C424.5 112.6 426.8 113.6 429.5 113.6C430.8 113.6 432 113.4 433.1 113C434.2 112.6 435.1 112.1 435.8 111.5C436.5 110.9 437.1 110.2 437.6 109.5C438.1 108.8 438.4 108 438.7 107.3C436.4 106.6 435 106.2 434.7 106.2C434.2 107.5 433.5 108.5 432.6 109.1C431.7 109.7 430.6 110 429.5 110C428.1 110 426.9 109.5 425.9 108.4C425 107.3 424.5 106 424.4 104.5H438.3C438.4 104 438.4 103.4 438.4 102.6C438.4 99.5996 437.6 97.0996 435.9 95.3996C434.4 93.4996 432.1 92.5996 429.3 92.5996ZM431.4 61.9996C431.5 60.6996 431.9 59.4996 432.7 58.5996C433.5 57.5996 434.6 57.1996 436 57.1996C437.4 57.1996 438.5 57.5996 439.3 58.4996C440.1 59.3996 440.5 60.5996 440.5 62.0996H431.4V61.9996ZM432.6 69.1996C431.7 68.0996 431.2 66.7996 431.1 65.2996H445C445.1 64.7996 445.1 64.1996 445.1 63.3996C445.1 60.3996 444.3 57.8996 442.6 56.1996C441 54.3996 438.7 53.4996 435.9 53.4996C433.1 53.4996 430.8 54.4996 429.1 56.3996C427.4 58.2996 426.5 60.8996 426.5 63.9996C426.5 67.0996 427.4 69.5996 429.2 71.5996C431 73.4996 433.3 74.4996 436 74.4996C437.3 74.4996 438.5 74.2996 439.6 73.8996C440.7 73.4996 441.6 72.9996 442.3 72.3996C443 71.7996 443.6 71.0996 444.1 70.3996C444.6 69.6996 444.9 68.8996 445.2 68.1996C442.9 67.4996 441.5 67.0996 441.2 67.0996C440.7 68.3996 440 69.3996 439.1 69.9996C438.2 70.5996 437.1 70.8996 436 70.8996C434.8 70.7996 433.6 70.2996 432.6 69.1996ZM460.9 57.2996V53.5996C460.3 53.4996 459.7 53.4996 459 53.4996C457 53.4996 455.5 54.3996 454.3 56.0996L453.9 53.8996H450V74.0996H454.3V63.1996C454.3 61.1996 454.7 59.6996 455.4 58.6996C456.1 57.6996 457.2 57.1996 458.7 57.1996H460.9V57.2996Z" fill="white"/>
</g>
</svg>
